<svg xmlns="http://www.w3.org/2000/svg" xmlns:xlink="http://www.w3.org/1999/xlink" width="1997.06" height="1750.525" viewBox="0 0 1997.06 1750.525">
  <defs>
    <linearGradient id="linear-gradient" x1="0.6" y1="0.952" x2="0.584" y2="0.46" gradientUnits="objectBoundingBox">
      <stop offset="0" stop-color="#101010"/>
      <stop offset="1" stop-color="#1e1e1e"/>
    </linearGradient>
    <filter id="Picture17" x="0" y="0" width="1997.06" height="1750.525" filterUnits="userSpaceOnUse">
      <feOffset input="SourceAlpha"/>
      <feGaussianBlur stdDeviation="25" result="blur"/>
      <feFlood flood-opacity="0.506"/>
      <feComposite operator="in" in2="blur"/>
      <feComposite in="SourceGraphic"/>
    </filter>
  </defs>
  <g transform="matrix(1, 0, 0, 1, 0, 0)" filter="url(#Picture17)">
    <path id="Picture17-2" data-name="Picture17" d="M1350.644,0a60,60,0,0,1,51.969,30.013l427.144,740.262a60,60,0,0,1,0,59.974l-427.144,740.262a60,60,0,0,1-51.969,30.013H496.416a60,60,0,0,1-51.969-30.013L17.3,830.249a60,60,0,0,1,0-59.974L444.447,30.013A60,60,0,0,1,496.416,0Z" transform="translate(75 75)" fill="url(#linear-gradient)"/>
  </g>
</svg>
